HIERARCHY
ROOT Hips
{
	OFFSET -0.001795 -0.223333 0.028219
	CHANNELS 6 Xposition Yposition Zposition Zrotation Yrotation Xrotation 
	JOINT LeftUpLeg
	{
		OFFSET 0.069520 -0.091406 -0.006815
		CHANNELS 3 Zrotation Yrotation Xrotation
		JOINT LeftLeg
		{
			OFFSET 0.034277 -0.375199 -0.004496
			CHANNELS 3 Zrotation Yrotation Xrotation
			JOINT LeftFoot
			{
				OFFSET -0.013596 -0.397961 -0.043693
				CHANNELS 3 Zrotation Yrotation Xrotation
				JOINT LeftToe
				{
					OFFSET 0.026358 -0.055791 0.119288
					CHANNELS 3 Zrotation Yrotation Xrotation
					End Site
					{
						OFFSET 0.000000 0.000000 0.000000
					}
				}
			}
		}
	}
	JOINT RightUpLeg
	{
		OFFSET -0.067670 -0.090522 -0.004320
		CHANNELS 3 Zrotation Yrotation Xrotation
		JOINT RightLeg
		{
			OFFSET -0.038290 -0.382569 -0.008850
			CHANNELS 3 Zrotation Yrotation Xrotation
			JOINT RightFoot
			{
				OFFSET 0.015774 -0.398415 -0.042312
				CHANNELS 3 Zrotation Yrotation Xrotation
				JOINT RightToe
				{
					OFFSET -0.025372 -0.048144 0.123348
					CHANNELS 3 Zrotation Yrotation Xrotation
					End Site
					{
						OFFSET 0.000000 0.000000 0.000000
					}
				}
			}
		}
	}
	JOINT Spine
	{
		OFFSET -0.002533 0.108963 -0.026696
		CHANNELS 3 Zrotation Yrotation Xrotation
		JOINT Spine1
		{
			OFFSET 0.005487 0.135180 0.001092
			CHANNELS 3 Zrotation Yrotation Xrotation
			JOINT Spine2
			{
				OFFSET 0.001457 0.052922 0.025425
				CHANNELS 3 Zrotation Yrotation Xrotation
				JOINT Neck
				{
					OFFSET -0.002778 0.213870 -0.042857
					CHANNELS 3 Zrotation Yrotation Xrotation
					JOINT Head
					{
						OFFSET 0.005152 0.064970 0.051349
						CHANNELS 3 Zrotation Yrotation Xrotation
						End Site
						{
							OFFSET 0.000000 0.000000 0.000000
						}
					}
				}
				JOINT LeftShoulder
				{
					OFFSET 0.078845 0.121749 -0.034090
					CHANNELS 3 Zrotation Yrotation Xrotation
					JOINT LeftArm
					{
						OFFSET 0.090977 0.030469 -0.008868
						CHANNELS 3 Zrotation Yrotation Xrotation
						JOINT LeftForeArm
						{
							OFFSET 0.259612 -0.012772 -0.027456
							CHANNELS 3 Zrotation Yrotation Xrotation
							JOINT LeftHand
							{
								OFFSET 0.249234 0.008986 -0.001171
								CHANNELS 3 Zrotation Yrotation Xrotation
								End Site
								{
									OFFSET 0.000000 0.000000 0.000000
								}
							}
						}
					}
				}
				JOINT RightShoulder
				{
					OFFSET -0.081759 0.118833 -0.038615
					CHANNELS 3 Zrotation Yrotation Xrotation
					JOINT RightArm
					{
						OFFSET -0.096012 0.032551 -0.009143
						CHANNELS 3 Zrotation Yrotation Xrotation
						JOINT RightForeArm
						{
							OFFSET -0.253742 -0.013329 -0.021401
							CHANNELS 3 Zrotation Yrotation Xrotation
							JOINT RightHand
							{
								OFFSET -0.255298 0.007772 -0.005559
								CHANNELS 3 Zrotation Yrotation Xrotation
								End Site
								{
									OFFSET 0.000000 0.000000 0.000000
								}
							}
						}
					}
				}
			}
		}
	}
}
MOTION
Frames: 13
Frame Time: 0.050000
-0.087021 0.939398 -0.014083 -0.696360 -21.690096 10.432665 7.696492 -0.026480 -8.441578 -1.029321 0.469653 -9.426851 -2.175435 -1.454793 13.052623 0.000000 0.000000 0.000000 -2.380156 1.501229 -14.378309 3.905463 -0.174089 -3.447348 -7.165370 -19.772564 11.372522 0.000000 0.000000 0.000000 -1.671143 0.124657 13.698249 -0.808589 1.523695 13.229449 4.429758 1.968129 1.247369 -1.718768 1.499751 -21.416308 0.000000 0.000000 0.000000 -30.402557 -29.707968 21.424957 -38.817467 -27.142900 3.073947 14.715903 -46.054843 -3.717374 0.000000 0.000000 0.000000 25.481434 43.964129 23.671831 14.925836 27.413389 1.228995 -35.168737 39.574396 -11.136194 0.000000 0.000000 0.000000 
-0.087852 0.938863 -0.015262 -0.443970 -20.988499 10.284359 7.711616 -0.037176 -8.696687 -1.104645 0.456345 -9.133782 -3.180505 -3.020566 12.987388 0.000000 0.000000 0.000000 -2.497592 1.455072 -14.071796 3.573211 -0.179836 -3.288926 -7.407615 -20.015213 10.857854 0.000000 0.000000 0.000000 -1.380959 0.048735 13.364020 -0.947161 1.570821 13.267179 4.037554 2.433311 1.258087 -1.351619 1.395228 -21.411546 0.000000 0.000000 0.000000 -30.228253 -30.228329 21.376024 -39.156794 -27.141939 3.219182 14.525431 -45.975253 -3.676430 0.000000 0.000000 0.000000 24.902177 44.786115 24.405961 12.995218 28.686209 0.896044 -35.942731 36.952555 -10.481571 0.000000 0.000000 0.000000 
-0.088730 0.938203 -0.015516 -0.160143 -20.397215 9.924537 7.339956 -0.085253 -8.875376 -1.062166 0.421858 -8.544401 -3.646831 -3.893835 12.327600 0.000000 0.000000 0.000000 -2.803826 1.397692 -13.706029 3.503952 -0.186787 -2.908515 -7.388617 -19.802632 10.184442 0.000000 0.000000 0.000000 -1.196865 0.005678 13.427522 -1.052693 1.562251 12.941307 3.892075 2.646184 1.452359 -1.145099 1.316704 -20.856688 0.000000 0.000000 0.000000 -30.379418 -30.064278 21.092166 -39.241066 -26.724899 3.124763 13.344662 -46.631217 -3.254017 0.000000 0.000000 0.000000 24.887139 44.464891 24.321674 13.176311 29.417412 0.953103 -36.463934 37.248760 -10.752338 0.000000 0.000000 0.000000 
-0.089967 0.937693 -0.015009 -0.053359 -19.664555 9.582039 7.144199 -0.115154 -8.683709 -1.016326 0.413241 -8.481278 -4.357887 -5.128571 11.848703 0.000000 0.000000 0.000000 -3.081798 1.314541 -13.079888 3.656596 -0.199060 -2.875830 -8.104618 -20.876632 9.921051 0.000000 0.000000 0.000000 -1.208137 -0.013162 13.193025 -0.765896 1.351541 13.019062 3.568056 2.767484 1.276100 -1.201445 1.390116 -20.540798 0.000000 0.000000 0.000000 -31.020423 -29.718329 20.811666 -39.175991 -26.031869 2.930950 11.440220 -46.963700 -2.500486 0.000000 0.000000 0.000000 26.009354 43.704736 24.352905 15.231751 28.541337 1.290755 -36.083028 39.696988 -11.434149 0.000000 0.000000 0.000000 
-0.091421 0.937390 -0.014009 -0.003125 -19.067971 9.250442 7.087531 -0.126978 -8.654255 -1.000215 0.386966 -7.982688 -4.544729 -5.479671 11.519408 0.000000 0.000000 0.000000 -2.983447 1.272845 -12.732154 3.540848 -0.203357 -2.274639 -8.274026 -20.983495 9.068893 0.000000 0.000000 0.000000 -1.167608 -0.034097 13.106540 -0.634526 1.241486 13.101686 3.477182 2.541996 1.252415 -1.361985 1.475592 -20.339259 0.000000 0.000000 0.000000 -31.357233 -29.079455 20.403756 -39.282169 -25.322754 2.709572 9.397032 -47.282204 -1.645200 0.000000 0.000000 0.000000 27.143897 42.391267 23.761804 18.460103 26.953134 1.749296 -34.322886 43.978334 -12.209239 0.000000 0.000000 0.000000 
-0.092868 0.937233 -0.013190 0.078982 -18.409175 9.283299 6.716780 -0.178911 -8.878230 -0.985044 0.375972 -7.806754 -4.751430 -5.865746 11.214931 0.000000 0.000000 0.000000 -3.127412 1.239486 -12.478511 3.609584 -0.212131 -2.179669 -8.489926 -21.351108 9.211960 0.000000 0.000000 0.000000 -1.358722 -0.015216 13.017875 -0.573508 1.151667 12.967144 3.122903 2.172148 1.000634 -2.078478 1.865223 -20.855142 0.000000 0.000000 0.000000 -31.621211 -28.444349 20.035888 -38.699349 -25.243741 2.604460 7.487999 -46.789741 -0.815286 0.000000 0.000000 0.000000 28.130490 41.077689 23.075135 21.550062 25.248424 2.084213 -30.359900 47.105839 -11.528888 0.000000 0.000000 0.000000 
-0.093892 0.937057 -0.013049 0.012410 -17.885238 9.331271 6.759398 -0.187945 -9.182858 -1.099158 0.372076 -7.554683 -4.745647 -5.843018 11.097648 0.000000 0.000000 0.000000 -2.863810 1.268384 -12.735952 3.504095 -0.210962 -1.456933 -8.716626 -21.692214 8.851578 0.000000 0.000000 0.000000 -1.639622 0.020415 12.877296 -1.042547 1.396366 12.926861 3.277321 1.842092 1.323645 -2.544134 2.103001 -21.464436 0.000000 0.000000 0.000000 -30.892319 -28.557317 19.978512 -39.284436 -25.737329 2.815735 7.817320 -46.342018 -0.920414 0.000000 0.000000 0.000000 28.288441 40.311275 22.460201 24.693536 23.671963 2.326547 -26.357350 48.142114 -10.095322 0.000000 0.000000 0.000000 
-0.094321 0.937190 -0.013666 0.089700 -17.718586 9.242088 6.632493 -0.202161 -9.224724 -1.013273 0.352572 -7.258956 -4.724018 -5.922193 10.722956 0.000000 0.000000 0.000000 -2.661085 1.285131 -12.859709 3.293086 -0.201163 -1.081285 -8.880889 -21.979958 8.867171 0.000000 0.000000 0.000000 -2.212769 0.120895 13.176605 -1.018036 1.330098 12.527649 2.783428 1.764167 1.560953 -3.048455 2.387809 -22.444576 0.000000 0.000000 0.000000 -30.542927 -28.478905 19.787867 -39.417825 -26.303664 3.016051 7.480057 -45.511724 -0.760616 0.000000 0.000000 0.000000 27.969149 39.605433 21.849494 26.566490 23.009775 2.455531 -24.485708 48.915249 -9.481041 0.000000 0.000000 0.000000 
-0.094057 0.937223 -0.014745 -0.086036 -17.557255 9.539787 6.793865 -0.194777 -9.513265 -1.129996 0.366990 -7.404051 -4.780103 -5.847492 11.168742 0.000000 0.000000 0.000000 -2.534744 1.317677 -13.120577 3.585783 -0.214467 -0.970734 -9.250608 -22.598888 8.704262 0.000000 0.000000 0.000000 -2.359355 0.147113 13.284125 -1.463687 1.562779 12.238723 2.413835 1.268558 1.771190 -3.408016 2.542223 -23.390954 0.000000 0.000000 0.000000 -30.002490 -28.831746 20.063924 -39.309660 -27.849911 3.466842 7.892746 -44.132077 -0.880082 0.000000 0.000000 0.000000 26.823765 40.064748 21.692236 25.901907 23.144099 2.381018 -24.171594 48.504066 -9.271280 0.000000 0.000000 0.000000 
-0.093479 0.937609 -0.016109 -0.346274 -17.638392 9.680210 6.637306 -0.209276 -9.255725 -0.880987 0.361437 -7.700516 -4.546753 -5.575030 10.861042 0.000000 0.000000 0.000000 -2.252430 1.368897 -13.490383 3.517447 -0.206419 -0.520123 -9.789295 -23.524916 8.700900 0.000000 0.000000 0.000000 -2.791131 0.234909 13.617205 -1.685640 1.618794 11.388311 1.765293 1.620381 2.427431 -2.907858 2.334356 -23.393532 0.000000 0.000000 0.000000 -29.633736 -29.780304 20.476905 -38.794032 -28.926975 3.759856 8.842643 -43.029848 -1.259126 0.000000 0.000000 0.000000 25.006539 40.426723 21.579405 24.068268 23.786308 2.117000 -26.662419 48.306405 -10.300693 0.000000 0.000000 0.000000 
-0.092558 0.938085 -0.017662 -0.694293 -17.266700 10.224242 6.973319 -0.192051 -9.537364 -1.089695 0.402020 -8.307283 -4.449901 -5.151761 11.531257 0.000000 0.000000 0.000000 -2.039636 1.455172 -14.168100 3.484755 -0.205378 -0.322524 -10.233139 -24.355081 9.213476 0.000000 0.000000 0.000000 -2.882134 0.238533 13.334110 -1.991068 1.730044 10.817447 1.251818 1.383774 2.694400 -3.025080 2.400294 -24.162397 0.000000 0.000000 0.000000 -29.654097 -30.280302 20.904541 -37.984425 -30.667000 4.162255 8.989748 -40.909959 -1.263270 0.000000 0.000000 0.000000 22.727243 41.318273 21.489317 21.253355 24.787072 1.789333 -27.773956 48.118116 -10.738310 0.000000 0.000000 0.000000 
-0.091594 0.938227 -0.019211 -1.018346 -17.241282 10.555931 7.176150 -0.177028 -9.781994 -1.027162 0.398982 -8.340411 -4.236325 -4.776072 11.592853 0.000000 0.000000 0.000000 -1.604991 1.538815 -14.702814 3.160126 -0.181770 0.136438 -10.581439 -24.943964 8.974792 0.000000 0.000000 0.000000 -2.842547 0.238370 13.512896 -2.595855 2.011551 10.045032 0.666950 1.561677 3.061312 -2.401971 2.091576 -23.035842 0.000000 0.000000 0.000000 -29.306680 -30.999223 21.211023 -37.448561 -31.622326 4.390518 9.908475 -39.559409 -1.566899 0.000000 0.000000 0.000000 20.710729 42.190283 21.544578 17.344716 26.010998 1.241521 -28.835323 46.196815 -10.629772 0.000000 0.000000 0.000000 
-0.090587 0.938455 -0.020508 -1.269767 -16.842155 10.775122 7.490308 -0.158637 -9.911882 -1.292094 0.429917 -8.678062 -4.451076 -5.013073 11.821124 0.000000 0.000000 0.000000 -1.497953 1.576153 -14.987861 2.966889 -0.175433 0.023583 -10.870030 -25.476788 9.677827 0.000000 0.000000 0.000000 -3.033271 0.272526 13.707950 -3.045971 2.201500 9.543862 0.524050 1.904605 3.276185 -2.311564 2.097558 -22.935129 0.000000 0.000000 0.000000 -29.261351 -31.829838 21.597148 -36.860698 -32.392658 4.564612 10.428341 -38.430100 -1.727717 0.000000 0.000000 0.000000 18.107189 43.168422 21.498741 14.198468 27.052184 0.729019 -29.544503 43.611945 -10.165954 0.000000 0.000000 0.000000 
